<?xml version="1.0" encoding="utf-8"?>
<!-- Generator: Adobe Illustrator 26.5.0, SVG Export Plug-In . SVG Version: 6.00 Build 0)  -->
<svg version="1.1"
	 id="svg2" xmlns:cc="http://creativecommons.org/ns#" xmlns:svg="http://www.w3.org/2000/svg" xmlns:dc="http://purl.org/dc/elements/1.1/" xmlns:rdf="http://www.w3.org/1999/02/22-rdf-syntax-ns#"
	 xmlns="http://www.w3.org/2000/svg" xmlns:xlink="http://www.w3.org/1999/xlink" x="0px" y="0px" viewBox="0 0 600 382.6"
	 style="enable-background:new 0 0 600 382.6;" xml:space="preserve">
<style type="text/css">
	.st0{fill:#28292D;}
	.st1{fill:url(#path32_00000152247452137225250520000010046541082615903889_);}
	.st2{fill:url(#path52_00000054228203398263557380000005360706981514582417_);}
	.st3{fill:url(#path72_00000101096655775462802230000006841896882530845103_);}
	.st4{clip-path:url(#SVGID_00000083787360785963278400000009801314021316757131_);}
	.st5{fill:#919191;}
	.st6{fill:url(#path108_00000163045895231819507620000012370155136661939903_);}
	.st7{fill:url(#path130_00000101062477500924192620000014503830221148980624_);}
	.st8{clip-path:url(#SVGID_00000020382497483073303890000005173362606226604163_);}
	.st9{fill:#666666;}
	.st10{fill:#444444;}
	.st11{fill:url(#path216_00000077320019717755625700000008699321334415859642_);}
	.st12{fill:url(#path238_00000070805398377220979650000003761628749002710457_);}
	.st13{fill:url(#path260_00000179606875186616061430000003138873613108395908_);}
	.st14{fill:url(#path282_00000023260149121395662080000016457637205663069827_);}
	.st15{fill:url(#path304_00000151514299781244625070000006737081777121879198_);}
	.st16{fill:url(#path326_00000169542000212180873120000012390001235218481335_);}
	.st17{fill:url(#path348_00000022531286605846597170000006479879630866136249_);}
	.st18{fill:url(#path370_00000036970748724057939220000004980856226182677632_);}
	.st19{fill:url(#path392_00000119818294611675346270000002710118481682472610_);}
	.st20{fill:url(#path414_00000031914178077233342330000007770512475981710765_);}
	.st21{fill:url(#path436_00000169559393678308803090000006227017293063373969_);}
	.st22{fill:url(#path458_00000045616628381140977580000010282368791230735535_);}
	.st23{fill:url(#path480_00000085935807024984017280000017891345981165366187_);}
	.st24{fill:url(#path502_00000071530085644290587890000003932498077362209712_);}
	.st25{fill:url(#path524_00000109022746783620880650000009431555775715502721_);}
	.st26{fill:url(#path546_00000029747261931978595570000013544609794279512221_);}
	.st27{fill:url(#path568_00000132070243702252566910000009526594590211469490_);}
	.st28{clip-path:url(#SVGID_00000054984478169361169750000008448625768278251928_);}
	.st29{fill:#969696;}
	.st30{fill:#808080;}
	.st31{fill:#595959;}
	.st32{fill:#BFBFBF;}
	.st33{fill:#A6A6A6;}
	.st34{fill:#999999;}
	.st35{fill:url(#path710_00000065033295113334268210000017156130487485656484_);}
	.st36{clip-path:url(#SVGID_00000001664723120562762870000005682383758032636088_);}
	.st37{fill:#F2F2F2;}
</style>
<g id="g10" transform="matrix(1.3333333,0,0,-1.3333333,0,600)">
	<path id="path12" class="st0" d="M0,84.5h450v450H0V84.5z"/>
	<g id="g14">
		<g id="g16">
			<g id="g22">
				<g id="g24">
					
						<linearGradient id="path32_00000049926858056321865580000009782737828501536911_" gradientUnits="userSpaceOnUse" x1="-284.9987" y1="20.2192" x2="-283.9987" y2="20.2192" gradientTransform="matrix(152.4938 -99.945 -99.945 -152.4938 45566.3633 -25114.9258)">
						<stop  offset="0" style="stop-color:#B8B9BB"/>
						<stop  offset="1" style="stop-color:#505052"/>
					</linearGradient>
					<path id="path32" style="fill:url(#path32_00000049926858056321865580000009782737828501536911_);" d="M57.6,308.5L57.6,308.5
						L57.6,308.5L57.6,308.5 M262.8,173.8l-35.3,26.3C104.8,262,57.8,308.3,57.6,308.5l0,0C137.3,229.2,262.8,173.8,262.8,173.8"/>
				</g>
			</g>
		</g>
	</g>
	<g id="g34">
		<g id="g36">
			<g id="g42">
				<g id="g44">
					
						<linearGradient id="path52_00000084495439150767620060000017705823388608998049_" gradientUnits="userSpaceOnUse" x1="-284.1846" y1="20.0353" x2="-283.1846" y2="20.0353" gradientTransform="matrix(104.2899 -62.5397 -59.2612 -108.6796 30971.2832 -15279.5811)">
						<stop  offset="0" style="stop-color:#B8B9BB"/>
						<stop  offset="1" style="stop-color:#505052"/>
					</linearGradient>
					<path id="path52" style="fill:url(#path52_00000084495439150767620060000017705823388608998049_);" d="M263.9,238.6l-13.3,23
						c-83.8,35.7-125.7,63.8-125.7,63.8l0,0C172.2,288.5,263.9,238.6,263.9,238.6"/>
				</g>
			</g>
		</g>
	</g>
	<g id="g54">
		<g id="g56">
			<g id="g62">
				<g id="g64">
					
						<linearGradient id="path72_00000117654041890660800300000000298957471628235426_" gradientUnits="userSpaceOnUse" x1="-285.4837" y1="20.4187" x2="-284.4837" y2="20.4187" gradientTransform="matrix(227.9472 -145.6457 -145.6457 -227.9472 68085.4688 -36536.6172)">
						<stop  offset="0" style="stop-color:#B8B9BB"/>
						<stop  offset="1" style="stop-color:#505052"/>
					</linearGradient>
					<path id="path72" style="fill:url(#path72_00000117654041890660800300000000298957471628235426_);" d="M123.6,391.3
						c40.9-27.8-7.4-19.2-7.4-19.2l0,0c-67.2,16.5-72.7,4.7-72.7,4.7l0,0c-76.6-36.7,206.5-192.2,206.5-192.2l0,0l46.8,32L111,323.3
						c-73.3,39.4,15,25.1,15,25.1l0,0c72.9-8.7,37.8,29.7,32.5,33l0,0c-65.8,41.6-145,68.6-145,68.6l0,0
						C13.5,450,82.6,419.1,123.6,391.3"/>
				</g>
			</g>
		</g>
	</g>
	<g id="g74">
		<g>
			<defs>
				<rect id="SVGID_1_" x="-75" y="9.5" width="600" height="600"/>
			</defs>
			<clipPath id="SVGID_00000075145318493745931180000009890671009263675010_">
				<use xlink:href="#SVGID_1_"  style="overflow:visible;"/>
			</clipPath>
			<g id="g76" style="clip-path:url(#SVGID_00000075145318493745931180000009890671009263675010_);">
				<g id="g82" transform="translate(231.0479,138.4434)">
					<path id="path84" class="st5" d="M0,84.5c0,0-100.7,60-154.9,103.2l2.2,1c0,0,86.4-59.6,139.1-89.6L0,84.5z"/>
				</g>
			</g>
		</g>
	</g>
	<g id="g86">
		<g id="g88">
			<g id="g94">
				<g id="g96">
					
						<linearGradient id="path108_00000133507623226125582980000007640685356406694315_" gradientUnits="userSpaceOnUse" x1="-285.9543" y1="18.5348" x2="-284.9543" y2="18.5348" gradientTransform="matrix(2.8979 -126.0602 -126.0602 -2.8979 3480.8132 -35683.2383)">
						<stop  offset="0" style="stop-color:#1A171B"/>
						<stop  offset="7.691960e-02" style="stop-color:#1A171B"/>
						<stop  offset="0.478" style="stop-color:#87888A"/>
						<stop  offset="1" style="stop-color:#1A171B"/>
					</linearGradient>
					<path id="path108" style="fill:url(#path108_00000133507623226125582980000007640685356406694315_);" d="M263.1,421.9
						c-11.2-5.4-21.3-13.2-29.6-22.3l0,0c-16-17.6-25.7-42.3-30.5-65.4l0,0c-9.3-45.1-2.2-97.6,27.8-134l0,0
						c11.1-13.4,25.4-24.2,41.7-30.5l0,0c19.9-7.7,41.6-8.1,62.4-4.4l0,0c-1.2-0.2,25.4,5.7,38.3,13.1l0,0
						c12.3,7.2,22.9,17,31.7,28.1l0,0c0.4,0.5,1.9,2.6,2.7,3.7l0,0c1.1,1.5,2.1,3.1,3.1,4.7l0,0c2.2,3.4,5.7,9.8,5.5,9.5l0,0
						c12.6,24.1,17.8,51.8,16.4,78.8l0,0c-0.7,13.4-2.9,26.4-6.6,39.2l0,0c-3.4,11.9-8.4,23.2-14.9,33.7l0,0
						c-12.4,20.1-30.8,37.1-53.1,45.6l0,0c-6.1,2.3-12.4,4-18.7,5.4l0,0c0,0-2.7,0.4-5.4,0.7l0,0c-2.7,0.4-5.3,0.8-5.2,0.7l0,0
						c-5.7,0.4-11.3,0.8-17,1.1l0,0c-0.4,0-0.9,0-1.3,0l0,0C295.3,429.7,274.5,427.4,263.1,421.9 M339.2,427.2
						C339.2,427.2,339.2,427.2,339.2,427.2L339.2,427.2C339.2,427.2,339.2,427.2,339.2,427.2"/>
				</g>
			</g>
		</g>
	</g>
	<g id="g110">
		<g id="g112">
			<g id="g118">
				<g id="g120">
					
						<linearGradient id="path130_00000085212611793976415730000001390627519804387237_" gradientUnits="userSpaceOnUse" x1="-285.8945" y1="18.2871" x2="-284.8945" y2="18.2871" gradientTransform="matrix(2.6117 -113.6092 -113.6092 -2.6117 3098.4109 -32125.2559)">
						<stop  offset="0" style="stop-color:#1A171B"/>
						<stop  offset="0.478" style="stop-color:#707173"/>
						<stop  offset="1" style="stop-color:#1A171B"/>
					</linearGradient>
					<path id="path130" style="fill:url(#path130_00000085212611793976415730000001390627519804387237_);" d="M244.2,407.7
						c-6.9-4.9-15.3-11.9-20.5-20.2l0,0c-9.9-15.9-18.1-38.2-21-59.1l0,0c-5.7-40.7-4.5-74.4,22.5-120.1l0,0
						c6.4-10.8,17.1-19,24.5-24.7l0,0c11.1-8.7,26.1-11,38.9-7.7l0,0c-0.7-0.2,15.7,5.2,23.7,11.9l0,0c7.6,6.5,14.2,15.3,19.6,25.4
						l0,0c0.3,0.4,1.2,2.4,1.7,3.4l0,0c0.7,1.4,1.3,2.8,1.9,4.2l0,0c1.3,3.1,3.5,8.9,3.4,8.6l0,0c7.8,21.8,11,46.8,10.1,71.2l0,0
						c-0.4,12.1-1.8,23.9-4.1,35.4l0,0c-2.1,10.7-5.2,20.9-9.2,30.4l0,0c-7.7,18.1-19.1,33.5-32.8,41.2l0,0
						c-3.8,2.1-7.7,3.7-11.6,4.9l0,0c0,0-1.7,0.3-3.3,0.7l0,0c-1.7,0.3-3.3,0.7-3.2,0.7l0,0c-3.5,0.4-7,0.7-10.5,1l0,0
						c-0.3,0-0.5,0-0.8,0l0,0C264.1,414.8,251.2,412.7,244.2,407.7 M291.2,412.5C291.2,412.5,291.2,412.5,291.2,412.5L291.2,412.5
						C291.2,412.5,291.2,412.5,291.2,412.5"/>
				</g>
			</g>
		</g>
	</g>
	<g id="g132">
		<g>
			<defs>
				<rect id="SVGID_00000173871508425099610690000004743009816031506562_" x="-75" y="9.5" width="600" height="600"/>
			</defs>
			<clipPath id="SVGID_00000038398108984896140070000006894497783947430289_">
				<use xlink:href="#SVGID_00000173871508425099610690000004743009816031506562_"  style="overflow:visible;"/>
			</clipPath>
			<g id="g134" style="clip-path:url(#SVGID_00000038398108984896140070000006894497783947430289_);">
				<g id="g140" transform="translate(332.3223,212.1191)">
					<path id="path142" class="st9" d="M0,84.5c0-54.9-26.9-99.4-60.1-99.4c-33.2,0-60.1,44.5-60.1,99.4c0,54.9,26.9,99.5,60.1,99.5
						C-26.9,184,0,139.5,0,84.5"/>
				</g>
				<g id="g144" transform="translate(324.7148,212.1191)">
					<path id="path146" d="M0,84.5c0-50-24-90.5-53.6-90.5c-29.6,0-53.6,40.5-53.6,90.5c0,50,24,90.5,53.6,90.5
						C-24,175,0,134.5,0,84.5"/>
				</g>
				<g id="g148" transform="translate(316.7207,213.9541)">
					<path id="path150" class="st5" d="M0,84.5C0,40.1-21.1,4.1-47,4.1c-26,0-47,36-47,80.4C-94.1,129-73,165-47,165
						C-21.1,165,0,129,0,84.5"/>
				</g>
				<g id="g152" transform="translate(269.6768,136.8438)">
					<path id="path154" class="st10" d="M0,84.5c-24.9,0-45.1,34.5-45.1,77.1c0,42.6,20.2,77.1,45.1,77.1
						c24.9,0,45.1-34.5,45.1-77.1C45.1,119.1,24.9,84.5,0,84.5 M0,242.1c-26,0-47-36-47-80.4c0-44.4,21.1-80.4,47-80.4
						c26,0,47,36,47,80.4C47,206.1,26,242.1,0,242.1"/>
				</g>
				<g id="g156" transform="translate(269.4355,242.5415)">
					<path id="path158" class="st10" d="M0,84.5L0,84.5c0.1,0,0.2,0,0.2,0c0.1,0,0.2,0,0.2,0v0.1c8.8,0.9,16.2,18,18.3,34
						c-5.6,4.6-11.9,7.1-18.5,7.1c-6.6,0-12.9-2.6-18.5-7.1C-16.2,102.5-8.8,85.5,0,84.5"/>
				</g>
				<g id="g160" transform="translate(269.4619,243.2515)">
					<path id="path162" d="M0,84.5L0,84.5c0.1,0,0.1,0,0.2,0c0.1,0,0.1,0,0.2,0v0c7.9,0.8,14.4,16,16.3,30.3
						c-5,4.1-10.6,6.3-16.5,6.3c-5.9,0-11.5-2.3-16.5-6.3C-14.4,100.5-7.8,85.4,0,84.5"/>
				</g>
				<g id="g164" transform="translate(306.1494,180.7236)">
					<path id="path166" class="st10" d="M0,84.5C-7.3,96-19.3,103.2-27.1,95.2l0,0c-0.1-0.1-0.1-0.2-0.2-0.3
						c-0.1-0.1-0.1-0.1-0.2-0.2l0,0c-7.2-9.6-7.6-31.3-4-47C-18,51.3-6.6,65.2,0,84.5"/>
				</g>
				<g id="g168" transform="translate(302.9609,180.7412)">
					<path id="path170" d="M0,84.5c-6.3,9.9-16.7,16.1-23.4,9.2l0,0c-0.1-0.1-0.1-0.2-0.2-0.2c-0.1-0.1-0.1-0.1-0.2-0.2l0,0
						c-6.2-8.3-6.6-27.1-3.4-40.7C-15.6,55.8-5.7,67.8,0,84.5"/>
				</g>
				<g id="g172" transform="translate(259.8447,192.1465)">
					<path id="path174" class="st10" d="M0,84.5L0,84.5c0,0.1-0.1,0.2-0.2,0.3c-0.1,0.1-0.1,0.2-0.2,0.3l0,0
						c-7.5,8.9-19.8,3.2-27.5-7.4C-22.1,57.4-11.1,42.2,2,37C6.3,52.3,6.8,74.1,0,84.5"/>
				</g>
				<g id="g176" transform="translate(259.1914,190.7744)">
					<path id="path178" d="M0,84.5L0,84.5c0,0.1-0.1,0.2-0.2,0.2C-0.2,84.9-0.3,85-0.3,85l0,0c-6.5,7.7-17.1,2.7-23.8-6.4
						c5-17.5,14.5-30.6,25.9-35C5.4,56.8,5.8,75.6,0,84.5"/>
				</g>
				<g id="g180" transform="translate(254.3174,224.1489)">
					<path id="path182" class="st10" d="M0,84.5L0,84.5c0.1,0.1,0.1,0.3,0.1,0.4c0,0.1,0.1,0.3,0.1,0.4l0,0
						c2.7,14.7-4,32.9-12.2,42.3c-8.5-13.8-13.8-33.3-13.8-54.9c0-1.8,0.1-3.6,0.1-5.4C-16,64.9-3.8,70.6,0,84.5"/>
				</g>
				<g id="g184" transform="translate(253.625,224.2227)">
					<path id="path186" d="M0,84.5L0,84.5c0,0.1,0.1,0.2,0.1,0.3c0,0.1,0.1,0.2,0.1,0.3l0,0c2.4,12.8-3.5,28.7-10.6,36.9
						c-7.4-12-12.1-29-12.1-47.8c0-1.6,0-3.2,0.1-4.7C-13.9,67.5-3.3,72.4,0,84.5"/>
				</g>
				<g id="g188" transform="translate(285.7607,219.4795)">
					<path id="path190" class="st10" d="M0,84.5L0,84.5c-0.1,0.1-0.1,0.2-0.1,0.4c0,0.1-0.1,0.3-0.1,0.4l0,0
						c-2.7,14.7,4,32.9,12.2,42.3c8.5-13.8,13.8-33.3,13.8-54.9c0-1.8-0.1-3.6-0.1-5.4C16,64.9,3.8,70.6,0,84.5"/>
				</g>
				<g id="g192" transform="translate(286.4561,219.5547)">
					<path id="path194" d="M0,84.5L0,84.5c0,0.1-0.1,0.2-0.1,0.3c0,0.1-0.1,0.2-0.1,0.3l0,0c-2.4,12.8,3.5,28.7,10.6,36.9
						c7.4-12,12.1-29,12.1-47.8c0-1.6,0-3.2-0.1-4.7C13.9,67.5,3.3,72.4,0,84.5"/>
				</g>
			</g>
		</g>
	</g>
	<g id="g196">
		<g id="g198">
			<g id="g204">
				<g id="g206">
					
						<linearGradient id="path216_00000044172122461066932920000005821184830728014521_" gradientUnits="userSpaceOnUse" x1="-289.8147" y1="13.9402" x2="-288.8147" y2="13.9402" gradientTransform="matrix(-23.7401 -30.316 -30.316 23.7401 -6159.5376 -8767.8301)">
						<stop  offset="0" style="stop-color:#EEEFEF"/>
						<stop  offset="0.6044" style="stop-color:#98999B"/>
						<stop  offset="1" style="stop-color:#98999B"/>
					</linearGradient>
					<path id="path216" style="fill:url(#path216_00000044172122461066932920000005821184830728014521_);" d="M275.3,321.4
						c-0.9-2-1.8-4-2.7-6l0,0l4.5-6c0.9,1.9,1.8,3.9,2.7,5.9l0,0c10.1,22.1,17.3,41.4,16,43l0,0c-0.1,0.1-0.1,0.1-0.2,0.1l0,0
						C293.8,358.5,285,342.4,275.3,321.4"/>
				</g>
			</g>
		</g>
	</g>
	<g id="g218">
		<g id="g220">
			<g id="g226">
				<g id="g228">
					
						<linearGradient id="path238_00000047775363898464637970000011883098261798021822_" gradientUnits="userSpaceOnUse" x1="-283.6593" y1="27.2802" x2="-282.6593" y2="27.2802" gradientTransform="matrix(24.2899 33.5379 33.5379 -24.2899 6254.0273 10499.749)">
						<stop  offset="0" style="stop-color:#98999B"/>
						<stop  offset="0.6044" style="stop-color:#77787A"/>
						<stop  offset="1" style="stop-color:#77787A"/>
					</linearGradient>
					<path id="path238" style="fill:url(#path238_00000047775363898464637970000011883098261798021822_);" d="M273.8,313.8l2.1-2.8
						c9.7,21.2,17,38.7,16.4,39.5l0,0c0,0,0,0,0,0l0,0C291.4,350.6,283.3,334.6,273.8,313.8"/>
				</g>
			</g>
		</g>
	</g>
	<g id="g240">
		<g id="g242">
			<g id="g248">
				<g id="g250">
					
						<linearGradient id="path260_00000026846078221100876890000010898078072895923874_" gradientUnits="userSpaceOnUse" x1="-289.8147" y1="13.9402" x2="-288.8147" y2="13.9402" gradientTransform="matrix(-23.7401 -30.316 -30.316 23.7401 -6159.5376 -8767.8301)">
						<stop  offset="0" style="stop-color:#EEEFEF"/>
						<stop  offset="0.6044" style="stop-color:#98999B"/>
						<stop  offset="1" style="stop-color:#98999B"/>
					</linearGradient>
					<path id="path260" style="fill:url(#path260_00000026846078221100876890000010898078072895923874_);" d="M275.3,321.4
						c-0.9-2-1.8-4-2.7-6l0,0l4.5-6c0.9,1.9,1.8,3.9,2.7,5.9l0,0c10.1,22.1,17.3,41.4,16,43l0,0c-0.1,0.1-0.1,0.1-0.2,0.1l0,0
						C293.8,358.5,285,342.4,275.3,321.4"/>
				</g>
			</g>
		</g>
	</g>
	<g id="g262">
		<g id="g264">
			<g id="g270">
				<g id="g272">
					
						<linearGradient id="path282_00000063621097346421093180000014124852779082404278_" gradientUnits="userSpaceOnUse" x1="-283.6593" y1="27.2802" x2="-282.6593" y2="27.2802" gradientTransform="matrix(24.2899 33.5379 33.5379 -24.2899 6254.0273 10499.749)">
						<stop  offset="0" style="stop-color:#98999B"/>
						<stop  offset="0.6044" style="stop-color:#77787A"/>
						<stop  offset="1" style="stop-color:#77787A"/>
					</linearGradient>
					<path id="path282" style="fill:url(#path282_00000063621097346421093180000014124852779082404278_);" d="M273.8,313.8l2.1-2.8
						c9.7,21.2,17,38.7,16.4,39.5l0,0c0,0,0,0,0,0l0,0C291.4,350.6,283.3,334.6,273.8,313.8"/>
				</g>
			</g>
		</g>
	</g>
	<g id="g284">
		<g id="g286">
			<g id="g292">
				<g id="g294">
					
						<linearGradient id="path304_00000079463665178218152910000016976517519157450682_" gradientUnits="userSpaceOnUse" x1="-289.8147" y1="13.9402" x2="-288.8147" y2="13.9402" gradientTransform="matrix(-23.7401 -30.316 -30.316 23.7401 -6159.5376 -8767.8301)">
						<stop  offset="0" style="stop-color:#EEEFEF"/>
						<stop  offset="0.6044" style="stop-color:#98999B"/>
						<stop  offset="1" style="stop-color:#98999B"/>
					</linearGradient>
					<path id="path304" style="fill:url(#path304_00000079463665178218152910000016976517519157450682_);" d="M275.3,321.4
						c-0.9-2-1.8-4-2.7-6l0,0l4.5-6c0.9,1.9,1.8,3.9,2.7,5.9l0,0c10.1,22.1,17.3,41.4,16,43l0,0c-0.1,0.1-0.1,0.1-0.2,0.1l0,0
						C293.8,358.5,285,342.4,275.3,321.4"/>
				</g>
			</g>
		</g>
	</g>
	<g id="g306">
		<g id="g308">
			<g id="g314">
				<g id="g316">
					
						<linearGradient id="path326_00000139286281674072188930000010501350617508220861_" gradientUnits="userSpaceOnUse" x1="-283.6593" y1="27.2802" x2="-282.6593" y2="27.2802" gradientTransform="matrix(24.2899 33.5379 33.5379 -24.2899 6254.0273 10499.749)">
						<stop  offset="0" style="stop-color:#98999B"/>
						<stop  offset="0.6044" style="stop-color:#77787A"/>
						<stop  offset="1" style="stop-color:#77787A"/>
					</linearGradient>
					<path id="path326" style="fill:url(#path326_00000139286281674072188930000010501350617508220861_);" d="M273.8,313.8l2.1-2.8
						c9.7,21.2,17,38.7,16.4,39.5l0,0c0,0,0,0,0,0l0,0C291.4,350.6,283.3,334.6,273.8,313.8"/>
				</g>
			</g>
		</g>
	</g>
	<g id="g328">
		<g id="g330">
			<g id="g336">
				<g id="g338">
					
						<linearGradient id="path348_00000071542623112803235840000012224471857044372668_" gradientUnits="userSpaceOnUse" x1="-281.3755" y1="15.6032" x2="-280.3755" y2="15.6032" gradientTransform="matrix(21.5163 -33.9456 -33.9456 -21.5163 6826.7207 -8863.6172)">
						<stop  offset="0" style="stop-color:#EEEFEF"/>
						<stop  offset="0.6044" style="stop-color:#98999B"/>
						<stop  offset="1" style="stop-color:#98999B"/>
					</linearGradient>
					<path id="path348" style="fill:url(#path348_00000071542623112803235840000012224471857044372668_);" d="M245.4,361
						c-1.3-1.5,4.7-21.9,13.5-45.5l0,0c0.8-2.2,1.6-4.3,2.4-6.3l0,0l4.8,5.2c-0.8,2.1-1.5,4.2-2.3,6.4l0,0
						c-8.5,22.8-16.4,40.4-18.2,40.4l0,0C245.5,361.1,245.5,361.1,245.4,361"/>
				</g>
			</g>
		</g>
	</g>
	<g id="g350">
		<g id="g352">
			<g id="g358">
				<g id="g360">
					
						<linearGradient id="path370_00000173853330203731534420000000635995836761855131_" gradientUnits="userSpaceOnUse" x1="-291.5365" y1="25.5283" x2="-290.5365" y2="25.5283" gradientTransform="matrix(-24.0379 34.9511 34.9511 24.0379 -7639.541 9900.0674)">
						<stop  offset="0" style="stop-color:#98999B"/>
						<stop  offset="0.6044" style="stop-color:#77787A"/>
						<stop  offset="1" style="stop-color:#77787A"/>
					</linearGradient>
					<path id="path370" style="fill:url(#path370_00000173853330203731534420000000635995836761855131_);" d="M248.5,352.5
						c-0.6-0.6,5.6-19.3,14-42.1l0,0l2.2,2.4C256.4,335.2,249.3,352.6,248.5,352.5L248.5,352.5C248.5,352.6,248.5,352.6,248.5,352.5
						"/>
				</g>
			</g>
		</g>
	</g>
	<g id="g372">
		<g id="g374">
			<g id="g380">
				<g id="g382">
					
						<linearGradient id="path392_00000090264935093569385440000016718753320466092462_" gradientUnits="userSpaceOnUse" x1="-296.5417" y1="22.1825" x2="-295.5417" y2="22.1825" gradientTransform="matrix(-27.1562 9.9515 9.9515 27.1562 -7965.0073 2629.3848)">
						<stop  offset="0" style="stop-color:#EEEFEF"/>
						<stop  offset="0.6044" style="stop-color:#98999B"/>
						<stop  offset="1" style="stop-color:#98999B"/>
					</linearGradient>
					<path id="path392" style="fill:url(#path392_00000090264935093569385440000016718753320466092462_);" d="M278,289.5
						c1.3-0.9,2.7-1.8,4.1-2.6l0,0c15.4-9.7,28.4-15.4,28.9-12.8l0,0c0.5,2.6-11.5,12.5-26.9,22.1l0,0c-1.4,0.9-2.8,1.7-4.2,2.5l0,0
						L278,289.5z"/>
				</g>
			</g>
		</g>
	</g>
	<g id="g394">
		<g id="g396">
			<g id="g402">
				<g id="g404">
					
						<linearGradient id="path414_00000133492930879773243400000007012138872134355884_" gradientUnits="userSpaceOnUse" x1="-276.9335" y1="19.8373" x2="-275.9335" y2="19.8373" gradientTransform="matrix(29.006 -9.4109 -9.4109 -29.006 8505.7314 -1742.0085)">
						<stop  offset="0" style="stop-color:#98999B"/>
						<stop  offset="0.6044" style="stop-color:#77787A"/>
						<stop  offset="1" style="stop-color:#77787A"/>
					</linearGradient>
					<path id="path414" style="fill:url(#path414_00000133492930879773243400000007012138872134355884_);" d="M278.5,292.1
						c14.8-9.2,26.8-15.7,27-14.5l0,0c0.2,1.1-11.3,9.4-26.1,18.7l0,0L278.5,292.1z"/>
				</g>
			</g>
		</g>
	</g>
	<g id="g416">
		<g id="g418">
			<g id="g424">
				<g id="g426">
					
						<linearGradient id="path436_00000097476359804514862760000003438355849384919190_" gradientUnits="userSpaceOnUse" x1="-296.5417" y1="22.1825" x2="-295.5417" y2="22.1825" gradientTransform="matrix(-27.1562 9.9515 9.9515 27.1562 -7965.0073 2629.3848)">
						<stop  offset="0" style="stop-color:#EEEFEF"/>
						<stop  offset="0.6044" style="stop-color:#98999B"/>
						<stop  offset="1" style="stop-color:#98999B"/>
					</linearGradient>
					<path id="path436" style="fill:url(#path436_00000097476359804514862760000003438355849384919190_);" d="M278,289.5
						c1.3-0.9,2.7-1.8,4.1-2.6l0,0c15.4-9.7,28.4-15.4,28.9-12.8l0,0c0.5,2.6-11.5,12.5-26.9,22.1l0,0c-1.4,0.9-2.8,1.7-4.2,2.5l0,0
						L278,289.5z"/>
				</g>
			</g>
		</g>
	</g>
	<g id="g438">
		<g id="g440">
			<g id="g446">
				<g id="g448">
					
						<linearGradient id="path458_00000146464562500177371390000016539358247143042182_" gradientUnits="userSpaceOnUse" x1="-276.9335" y1="19.8373" x2="-275.9335" y2="19.8373" gradientTransform="matrix(29.006 -9.4109 -9.4109 -29.006 8505.7314 -1742.0085)">
						<stop  offset="0" style="stop-color:#98999B"/>
						<stop  offset="0.6044" style="stop-color:#77787A"/>
						<stop  offset="1" style="stop-color:#77787A"/>
					</linearGradient>
					<path id="path458" style="fill:url(#path458_00000146464562500177371390000016539358247143042182_);" d="M278.5,292.1
						c14.8-9.2,26.8-15.7,27-14.5l0,0c0.2,1.1-11.3,9.4-26.1,18.7l0,0L278.5,292.1z"/>
				</g>
			</g>
		</g>
	</g>
	<g id="g460">
		<g id="g462">
			<g id="g468">
				<g id="g470">
					
						<linearGradient id="path480_00000102505095382310627160000007656617134022233012_" gradientUnits="userSpaceOnUse" x1="-287.609" y1="27.2385" x2="-286.609" y2="27.2385" gradientTransform="matrix(1.9511 44.7993 44.7993 -1.9511 -391.2334 13168.3867)">
						<stop  offset="0" style="stop-color:#EEEFEF"/>
						<stop  offset="0.6044" style="stop-color:#98999B"/>
						<stop  offset="1" style="stop-color:#98999B"/>
					</linearGradient>
					<path id="path480" style="fill:url(#path480_00000102505095382310627160000007656617134022233012_);" d="M266.9,274.6
						c-0.7-28,0-50.9,1.6-51l0,0c1.6-0.1,3.5,22.5,4.2,50.5l0,0c0.1,2.6,0.1,5.1,0.2,7.5l0,0l-5.7,0.4
						C267,279.7,266.9,277.1,266.9,274.6"/>
				</g>
			</g>
		</g>
	</g>
	<g id="g482">
		<g id="g484">
			<g id="g490">
				<g id="g492">
					
						<linearGradient id="path502_00000164515966550334654490000010737948776593330082_" gradientUnits="userSpaceOnUse" x1="-285.2445" y1="14.8445" x2="-284.2445" y2="14.8445" gradientTransform="matrix(-0.2892 -48.2077 -48.2077 0.2892 902.9253 -13487.3311)">
						<stop  offset="0" style="stop-color:#98999B"/>
						<stop  offset="0.6044" style="stop-color:#77787A"/>
						<stop  offset="1" style="stop-color:#77787A"/>
					</linearGradient>
					<path id="path502" style="fill:url(#path502_00000164515966550334654490000010737948776593330082_);" d="M268.8,233.6
						c0.7-0.1,1.8,21.3,2.5,48.2l0,0l-2.6,0.2C268.1,255.1,268.1,233.6,268.8,233.6"/>
				</g>
			</g>
		</g>
	</g>
	<g id="g504">
		<g id="g506">
			<g id="g512">
				<g id="g514">
					
						<linearGradient id="path524_00000010274449967969737750000004121382609625439149_" gradientUnits="userSpaceOnUse" x1="-276.9489" y1="25.4358" x2="-275.9489" y2="25.4358" gradientTransform="matrix(26.829 6.5186 6.5186 -26.829 7494.7861 2772.2424)">
						<stop  offset="0" style="stop-color:#EEEFEF"/>
						<stop  offset="0.6044" style="stop-color:#98999B"/>
						<stop  offset="1" style="stop-color:#98999B"/>
					</linearGradient>
					<path id="path524" style="fill:url(#path524_00000010274449967969737750000004121382609625439149_);" d="M255.4,296.2
						c-16-6.6-28.6-14.1-28.2-16.8l0,0c0.4-2.6,13.6,0.6,29.6,7.2l0,0c1.5,0.6,2.9,1.2,4.3,1.8l0,0l-1.3,9.5
						C258.3,297.4,256.8,296.9,255.4,296.2"/>
				</g>
			</g>
		</g>
	</g>
	<g id="g526">
		<g id="g528">
			<g id="g534">
				<g id="g536">
					
						<linearGradient id="path546_00000174584438315465234670000016739966143848185774_" gradientUnits="userSpaceOnUse" x1="-295.2011" y1="16.1559" x2="-294.2011" y2="16.1559" gradientTransform="matrix(-28.6091 -8.0991 -8.0991 28.6091 -8062.0273 -2563.1262)">
						<stop  offset="0" style="stop-color:#98999B"/>
						<stop  offset="0.6044" style="stop-color:#77787A"/>
						<stop  offset="1" style="stop-color:#77787A"/>
					</linearGradient>
					<path id="path546" style="fill:url(#path546_00000174584438315465234670000016739966143848185774_);" d="M232.9,281.7
						c0.2-1.2,12.5,2.9,27.8,9.2l0,0l-0.6,4.4C244.7,288.9,232.7,282.9,232.9,281.7"/>
				</g>
			</g>
		</g>
	</g>
	<g id="g548">
		<g id="g550">
			<g id="g556">
				<g id="g558">
					
						<radialGradient id="path568_00000152956710938623744870000008946860596209269178_" cx="-271.9846" cy="22.6402" r="1" gradientTransform="matrix(19.7375 0 0 -33.7364 5637.8633 1062.2988)" gradientUnits="userSpaceOnUse">
						<stop  offset="0" style="stop-color:#28292D"/>
						<stop  offset="0.9011" style="stop-color:#9A9C9D"/>
						<stop  offset="1" style="stop-color:#9A9C9D"/>
					</radialGradient>
					<path id="path568" style="fill:url(#path568_00000152956710938623744870000008946860596209269178_);" d="M255,298.5
						c0-13.9,6.6-25.2,14.7-25.2l0,0c8.1,0,14.7,11.3,14.7,25.2l0,0c0,13.9-6.6,25.2-14.7,25.2l0,0C261.5,323.7,255,312.4,255,298.5
						"/>
				</g>
			</g>
		</g>
	</g>
	<g id="g570">
		<g>
			<defs>
				<rect id="SVGID_00000127727933320176216690000006293397320472171704_" x="-75" y="9.5" width="600" height="600"/>
			</defs>
			<clipPath id="SVGID_00000168100659240093498380000008720779548040836997_">
				<use xlink:href="#SVGID_00000127727933320176216690000006293397320472171704_"  style="overflow:visible;"/>
			</clipPath>
			<g id="g572" style="clip-path:url(#SVGID_00000168100659240093498380000008720779548040836997_);">
				<g id="g578" transform="translate(278.4004,213.9541)">
					<path id="path580" class="st29" d="M0,84.5c0-8.2-3.9-14.9-8.7-14.9s-8.7,6.7-8.7,14.9c0,8.2,3.9,14.9,8.7,14.9S0,92.8,0,84.5"
						/>
				</g>
				<g id="g582" transform="translate(261.8633,212.3975)">
					<path id="path584" d="M0,84.5c0,8.2,3.9,14.9,8.7,14.9c2.2,0,4.2-1.4,5.7-3.6c-1.6,3.2-4,5.2-6.6,5.2c-4.8,0-8.7-6.7-8.7-14.9
						c0-4.5,1.2-8.6,3-11.3C0.8,77.4,0,80.8,0,84.5"/>
				</g>
				<g id="g586" transform="translate(269.8516,239.7627)">
					<path id="path588" class="st0" d="M0,84.5L0,84.5c-0.1,0-0.1,0-0.2,0c-0.1,0-0.1,0-0.2,0v0c-3.5,0.3-6.8,3.9-9.2,8.8
						c2.3-6,5.5-10.7,9.2-11.1v0c0.1,0,0.1,0,0.2,0c0.1,0,0.1,0,0.2,0v0c3.7,0.4,6.9,5.1,9.2,11.1C6.8,88.5,3.5,84.9,0,84.5"/>
				</g>
				<g id="g590" transform="translate(264.0986,231.0752)">
					<path id="path592" d="M0,84.5c0-2.1-1-3.9-2.3-3.9c-1.3,0-2.3,1.7-2.3,3.9c0,2.1,1,3.9,2.3,3.9C-1,88.4,0,86.7,0,84.5"/>
				</g>
				<g id="g594" transform="translate(263.0166,231.0752)">
					<path id="path596" class="st29" d="M0,84.5c0-1.1-0.5-2-1.2-2c-0.7,0-1.2,0.9-1.2,2c0,1.1,0.5,2,1.2,2C-0.5,86.6,0,85.7,0,84.5
						"/>
				</g>
				<g id="g598" transform="translate(279.6924,230.2969)">
					<path id="path600" d="M0,84.5c0-2.1-1-3.9-2.3-3.9c-1.3,0-2.3,1.7-2.3,3.9c0,2.2,1,3.9,2.3,3.9C-1,88.4,0,86.7,0,84.5"/>
				</g>
				<g id="g602" transform="translate(278.6104,230.2969)">
					<path id="path604" class="st29" d="M0,84.5c0-1.1-0.5-2-1.2-2c-0.7,0-1.2,0.9-1.2,2c0,1.1,0.5,2,1.2,2C-0.5,86.6,0,85.7,0,84.5
						"/>
				</g>
				<g id="g606" transform="translate(284.0186,208.1182)">
					<path id="path608" d="M0,84.5c0-2.2-1-3.9-2.3-3.9c-1.3,0-2.3,1.7-2.3,3.9c0,2.1,1,3.9,2.3,3.9C-1,88.4,0,86.7,0,84.5"/>
				</g>
				<g id="g610" transform="translate(282.9365,208.1182)">
					<path id="path612" class="st29" d="M0,84.5c0-1.1-0.5-2-1.2-2c-0.7,0-1.2,0.9-1.2,2c0,1.1,0.5,2,1.2,2C-0.5,86.6,0,85.7,0,84.5
						"/>
				</g>
				<g id="g614" transform="translate(271.9541,193.3311)">
					<path id="path616" d="M0,84.5c0-2.1-1-3.9-2.3-3.9c-1.3,0-2.3,1.7-2.3,3.9c0,2.2,1,3.9,2.3,3.9C-1,88.4,0,86.7,0,84.5"/>
				</g>
				<g id="g618" transform="translate(270.8711,193.3311)">
					<path id="path620" class="st29" d="M0,84.5c0-1.1-0.5-2-1.2-2c-0.7,0-1.2,0.9-1.2,2c0,1.1,0.5,2,1.2,2C-0.5,86.6,0,85.7,0,84.5
						"/>
				</g>
				<g id="g622" transform="translate(259.7725,208.5059)">
					<path id="path624" d="M0,84.5c0-2.1-1-3.9-2.3-3.9c-1.3,0-2.3,1.7-2.3,3.9c0,2.2,1,3.9,2.3,3.9C-1,88.4,0,86.7,0,84.5"/>
				</g>
				<g id="g626" transform="translate(258.6953,208.5059)">
					<path id="path628" class="st29" d="M0,84.5c0-1.1-0.5-2-1.2-2c-0.7,0-1.2,0.9-1.2,2c0,1.1,0.5,2,1.2,2C-0.5,86.6,0,85.7,0,84.5
						"/>
				</g>
				<g id="g630" transform="translate(290.4971,332.6816)">
					<path id="path632" class="st30" d="M0,84.5c-20.2,5.4-35.9-0.8-44.6-6.1c-0.8-0.7-1.7-1.4-2.7-2.3c7.5,3.3,15.4,5.2,23.6,5.2
						c44.5,0,80.5-52.7,80.5-117.7s-36-117.7-80.5-117.7c-5,0-9.9,0.7-14.6,2c6.2-4.3,12.8-7.9,19.9-10.7c0.1,0,0.1,0,0.2,0
						c48,0,87,56.8,87,126.8C68.7,22.8,38.2,70.7,0,84.5"/>
				</g>
				<g id="g634" transform="translate(390.7783,125.7295)">
					<path id="path636" class="st31" d="M0,84.5c0.5,0.7,1,1.5,1.5,2.2l2.1,6l-8.1-11.1l2.7,10.8C-5.6,86.8-12.1,79-12.1,79
						c10.6,20.7,7.8,57,7.8,57c-2.2-44.3-24.4-61.7-24.4-61.7c6.2,9.5,5.5,21.8,5.5,21.8C-24.5,86.4-34,79-34,79
						c0.6,1.1,1,2.2,1.2,3.2c5,11.3,8.4,26.1,7.1,45c0,0-3.6-55.1-43.7-77.7c0,0-0.4,0.2,0-0.2c29,4.3,43.7,21.1,43.7,21.1
						c-0.9-6.9-7.9-12.3-7.9-12.3l18.1,8.8c4.6,4.3,8.9,9,12.8,14C-2.3,81.3-0.8,83.4,0,84.5"/>
				</g>
				<g id="g638" transform="translate(192.4326,233.0728)">
					<path id="path640" class="st30" d="M0,84.5c0,0-2.1,49.4,42.1,93.7C42.1,178.2-2.8,167.4,0,84.5"/>
				</g>
				<g id="g642" transform="translate(183.8877,270.7974)">
					<path id="path644" class="st32" d="M0,84.5c0,0-1.1,25,21.3,47.5C21.3,132-1.4,126.5,0,84.5"/>
				</g>
				<g id="g646" transform="translate(207.6133,181.0596)">
					<path id="path648" class="st0" d="M0,84.5c0,0,7.4-42.9,39.3-68.9C39.3,15.6,6.2,28.8,0,84.5"/>
				</g>
				<g id="g650" transform="translate(325.3408,149.5215)">
					<path id="path652" class="st33" d="M0,84.5c0,0,19.6,30.4,13.8,53.6C13.8,138.2,15.4,117.6,0,84.5"/>
				</g>
				<g id="g654" transform="translate(265.2314,323.9219)">
					<path id="path656" class="st34" d="M0,84.5c0,0,39.8-3.4,58.9-48.3C58.9,36.2,51.2,83.3,0,84.5"/>
				</g>
				<g id="g658" transform="translate(286.2764,220.2227)">
					<path id="path660" class="st5" d="M0,84.5c0,0,5.9,18.2,7.9,9.9c0,0,4.8-12.4,7.8-7.6c0,0,5.4,12-3.9,39.9
						c0,0,27.9-41.5,2.8-47.3c0,0-3.6-1.5-7.8,8.8c0,0-1,7.8-5.2-9.3C1.7,79,0.3,79.3,0,84.5"/>
				</g>
				<g id="g662" transform="translate(259.8857,186.5635)">
					<path id="path664" class="st5" d="M0,84.5c0,0,0.8-20.4-4.3-12.8c0,0-9.3,10.7-10.5,4.8c0,0-1-14,18.5-38.5
						c0,0-43.1,31.2-20.2,46.2c0,0,3,2.9,11-5.9c0,0,3.9-7.4,1.8,11.2C-3.8,89.5-2.3,89.7,0,84.5"/>
				</g>
				<g id="g666" transform="translate(111.1201,205.8682)">
					<path id="path668" class="st0" d="M0,84.5c0,0,65.6-41.3,106.2-62.5l28.1-31.3C134.3-9.2,45.1,41.1,0,84.5"/>
				</g>
				<g id="g670" transform="translate(288.4844,183.3906)">
					<path id="path672" class="st5" d="M0,84.5c0,0,15.9-17.9-7.6-39.4l-6.1-2.5l-2.1,9C-15.7,51.7,5.4,58.6,0,84.5"/>
				</g>
				<g id="g674" transform="translate(236.708,222.2656)">
					<path id="path676" class="st5" d="M0,84.5c0,0-1.9,22.9,11.2,40.1l-0.4,0.7l5.4-9.8C16.2,115.6,4.4,111.7,0,84.5"/>
				</g>
				<g id="g678" transform="translate(271.1934,276.873)">
					<path id="path680" class="st5" d="M0,84.5c0,0,11.8-3.8,16.7-10.9L9.8,59.7C9.8,59.7,13.4,74.8,0,84.5"/>
				</g>
				<g id="g682" transform="translate(279.0986,282.4019)">
					<path id="path684" class="st5" d="M0,84.5c0,0,7.7-5.4,7.6-14.5l2.9,8.5L0,84.5z"/>
				</g>
				<g id="g686" transform="translate(302.2197,186.2344)">
					<path id="path688" class="st5" d="M0,84.5c0,0,5.2-7.8-1.6-18.1l6.7,10.3l0.8,3.4L0,84.5z"/>
				</g>
			</g>
		</g>
	</g>
	<g id="g690">
		<g id="g692">
			<g id="g698">
				<g id="g700">
					
						<linearGradient id="path710_00000008111842332164164280000016363885926584612993_" gradientUnits="userSpaceOnUse" x1="-285.5928" y1="18.6699" x2="-284.5928" y2="18.6699" gradientTransform="matrix(23.9079 -124.6109 -124.6109 -23.9079 9523.8936 -34764.9844)">
						<stop  offset="0" style="stop-color:#B1B3B4"/>
						<stop  offset="0.6978" style="stop-color:#404042"/>
						<stop  offset="1" style="stop-color:#8F9092"/>
					</linearGradient>
					<path id="path710" style="fill:url(#path710_00000008111842332164164280000016363885926584612993_);" d="M357.3,376.3l-1.4,1.3
						c-19.3,23.6-35.5,32.9-35.5,32.9l0,0c1.6-1.8,3.1-3.4,4.4-4.9l0,0c8.5-10.5,20.3-31.7,30.3-72.8l0,0
						c2.8-11.6-0.1,30.1-0.2,30.5l0,0c-0.1,0.8,0.3,1.3,1,1.8l0,0c6.1-9,26.9-40.5,23.5-97.8l0,0c0,0,18.9,44.6-5.2,98.5l0,0
						c0.6-0.1,1-0.1,1-0.1l0,0l29.8-38.8l-10,39.4c0,0,12.2-13.4,14.8-18.1l0,0c0,0,1.7,8.9-0.8,15.1l0,0l15-15.1l-6.2,15.6
						l-23.9,25.6l7.2-19.6l-32.4,36.5l16.6-38.1c0,0-40.2,55.4-74.6,60.5l0,0C342.4,411.9,357.3,376.3,357.3,376.3"/>
				</g>
			</g>
		</g>
	</g>
	<g id="g712">
		<g>
			<defs>
				<rect id="SVGID_00000002346367980415228050000001637088136583369137_" x="-75" y="9.5" width="600" height="600"/>
			</defs>
			<clipPath id="SVGID_00000018212299330315045030000008740210575403930043_">
				<use xlink:href="#SVGID_00000002346367980415228050000001637088136583369137_"  style="overflow:visible;"/>
			</clipPath>
			<g id="g714" style="clip-path:url(#SVGID_00000018212299330315045030000008740210575403930043_);">
				<g id="g720" transform="translate(274.5713,141.3896)">
					<path id="path722" class="st37" d="M0,84.5c-24.6,0-44.6,34.3-44.6,76.7c0,0.2,0,0.3,0,0.5c0,0.2,0,0.4,0,0.6
						c0,26.3,7.7,49.6,19.5,63.4c-14.5-12.7-24.5-38.6-24.5-68.5c0-42.4,20-76.7,44.6-76.7c7.7,0,14.9,3.4,21.2,9.3
						C11.2,86.4,5.7,84.5,0,84.5"/>
				</g>
			</g>
		</g>
	</g>
</g>
</svg>
